<svg id="Layer_1" data-name="Layer 1" xmlns="http://www.w3.org/2000/svg" viewBox="0 0 623.87 278.58"><defs><style>.cls-1,.cls-2{fill:#bda3a0;stroke:#04213e;stroke-linejoin:round;}.cls-1{stroke-linecap:round;stroke-width:2px;}.cls-2{stroke-width:5px;}.cls-3{font-size:12px;fill:#04213e;font-family:Arial;font-weight:700;}.cls-4{white-space:pre;}.cls-5{letter-spacing:-1px;}</style></defs><title>instructions</title><rect class="cls-1" x="261.8" y="1" width="100.28" height="100.9" rx="7.01" ry="7.01"/><path class="cls-2" d="M441.1,205.19h32.44a32.44,32.44,0,1,1-9.5-22.94" transform="translate(-129.16 -153.74)"/><text class="cls-3" transform="translate(306.93 142.66)">1. <tspan class="cls-4" x="-286.9" y="14.4">SET  UNITS, MOVEMENT HEIGH</tspan><tspan class="cls-5" x="-103.56" y="14.4">T</tspan><tspan x="-97.56" y="14.4">, CUTTING/DR</tspan><tspan x="-16.9" y="14.4">A</tspan><tspan x="-8.89" y="14.4">WING HEIGH</tspan><tspan class="cls-5" x="65.1" y="14.4">T</tspan><tspan x="71.1" y="14.4">, </tspan><tspan x="77.77" y="14.4"> </tspan><tspan class="cls-4" x="80.66" y="14.4">AND  SPEED IN THE OPTIONS </tspan><tspan x="257.35" y="14.4">P</tspan><tspan x="264.46" y="14.4">ANE</tspan><tspan x="289.8" y="14.4">L</tspan><tspan x="0" y="43.2">2. </tspan><tspan x="-68.23" y="57.6">UPLOAD</tspan><tspan x="-17.56" y="57.6"> </tspan><tspan x="-14.44" y="57.6">YOUR SVG FILE</tspan><tspan x="0" y="86.4">3. </tspan><tspan x="-161.11" y="100.8">DOWNLOAD</tspan><tspan x="-89.12" y="100.8"> </tspan><tspan x="-86" y="100.8">YOUR GCODE FROM THE GENER</tspan><tspan x="108.01" y="100.8">A</tspan><tspan x="115.78" y="100.8">TED LINK</tspan></text></svg>